<svg viewBox="0 0 1361 351" preserveAspectRatio="none" fill="none" xmlns="http://www.w3.org/2000/svg">
  <path
    d="M1309.92 2.37594C1354.16 17.0019 1373.2 106.295 1352.46 201.818C1331.72 297.341 1279.04 362.921 1234.81 348.296C1221.8 343.997 1210.98 333.245 1202.7 317.782C1181.69 343.322 1157.94 355.477 1136.22 348.296C1123.22 343.997 1112.39 333.245 1104.11 317.782C1083.11 343.322 1059.35 355.477 1037.63 348.296C1024.63 343.997 1013.81 333.245 1005.53 317.782C984.52 343.322 960.767 355.477 939.048 348.296C926.046 343.997 915.222 333.245 906.943 317.782C885.934 343.322 862.181 355.477 840.462 348.296C827.46 343.997 816.637 333.245 808.358 317.782C787.348 343.322 763.595 355.477 741.876 348.296C728.874 343.997 718.05 333.245 709.772 317.782C688.762 343.322 665.009 355.477 643.291 348.296C630.289 343.997 619.465 333.245 611.186 317.782C590.177 343.322 566.423 355.477 544.704 348.296C531.702 343.997 520.879 333.245 512.6 317.782C491.591 343.322 467.838 355.477 446.119 348.296C433.117 343.997 422.293 333.245 414.015 317.782C393.005 343.322 369.252 355.477 347.533 348.296C334.531 343.997 323.707 333.245 315.428 317.782C294.419 343.322 270.666 355.477 248.947 348.296C235.945 343.997 225.122 333.245 216.843 317.782C195.833 343.322 172.08 355.477 150.361 348.296C137.359 343.997 126.535 333.245 118.257 317.782C97.2472 343.322 73.4944 355.477 51.7755 348.296C7.53984 333.67 -11.5049 244.376 9.23755 148.853C29.9801 53.3302 82.655 -12.2499 126.891 2.37594C139.893 6.67494 150.718 17.4251 158.997 32.888C180.006 7.34927 203.758 -4.80503 225.477 2.37594C238.479 6.67492 249.303 17.4247 257.582 32.8869C278.591 7.34832 302.344 -4.80494 324.062 2.37594C337.065 6.67494 347.89 17.4251 356.168 32.888C377.178 7.34927 400.93 -4.80503 422.649 2.37594C435.65 6.67492 446.475 17.4247 454.754 32.8869C475.763 7.34832 499.516 -4.80494 521.234 2.37594C534.236 6.67494 545.061 17.4251 553.34 32.888C574.349 7.34927 598.102 -4.80503 619.82 2.37594C632.822 6.67492 643.647 17.4247 651.926 32.8869C672.935 7.34832 696.687 -4.80494 718.406 2.37594C731.408 6.67494 742.233 17.4251 750.512 32.888C771.521 7.34926 795.273 -4.80503 816.992 2.37594C829.994 6.67491 840.819 17.4247 849.097 32.8869C870.106 7.34832 893.859 -4.80492 915.577 2.37594C928.58 6.67494 939.405 17.4252 947.684 32.888C968.693 7.34926 992.445 -4.80503 1014.16 2.37594C1027.17 6.67491 1037.99 17.4247 1046.27 32.8869C1067.28 7.34832 1091.03 -4.80493 1112.75 2.37594C1125.75 6.67494 1136.58 17.4251 1144.86 32.888C1165.86 7.34927 1189.62 -4.80503 1211.34 2.37594C1224.34 6.67491 1235.16 17.4247 1243.44 32.8869C1264.45 7.34832 1288.2 -4.80493 1309.92 2.37594Z"
    fill="#DEF2AC" />
</svg>
